<?xml version="1.0" encoding="utf-8"?>
<!-- Generator: Adobe Illustrator 23.0.2, SVG Export Plug-In . SVG Version: 6.00 Build 0)  -->
<svg version="1.1" id="Layer_1" xmlns="http://www.w3.org/2000/svg" xmlns:xlink="http://www.w3.org/1999/xlink" x="0px" y="0px"
	 viewBox="0 0 38.93 16.81" style="enable-background:new 0 0 38.93 16.81;" xml:space="preserve">
<style type="text/css">
	.st0{fill:#1B1B1B;}
	.st1{fill:#ED1C24;}
	.st2{fill:#0FAB4B;}
	.st3{fill:#066E53;}
	.st4{fill:#81C341;}
	.st5{fill:#111111;}
	.st6{fill:#33C0CB;}
	.st7{fill:#F37221;}
	.st8{fill:#444444;}
	.st9{fill:#3A3B3A;}
	.st10{fill:#2B2C2B;}
	.st11{fill:#732A83;}
	.st12{fill:#515552;}
	.st13{fill:#FBC112;}
	.st14{fill:#45A6DD;}
</style>
<g id="_x35_CDANh.tif">
	<g>
		<path class="st0" d="M11.76,3.96c0.75-0.52,1.59-0.79,2.48-0.96c0.38-0.07,0.77-0.09,1.16-0.09c1.86,0,3.72,0,5.58,0
			c0,0.01,0,0.03,0,0.04c-0.03,0.06-0.07,0.11-0.09,0.17c-0.2,0.43-0.39,0.86-0.59,1.29c-0.52,0-1.04,0-1.56,0
			c-0.04,0-0.05,0.02-0.06,0.05c-0.26,0.46-0.52,0.93-0.78,1.39c-0.75,0-1.51,0.01-2.26,0.01c-1.22,0-2.16,0.67-2.56,1.82
			c-0.04,0.12-0.08,0.24-0.11,0.35c-0.08-0.12-0.15-0.25-0.23-0.37c-0.05-0.09-0.1-0.11-0.14,0.01c-0.54,0-1.07,0-1.61-0.01
			c0-0.04,0-0.07,0-0.11c0.19-0.83,0.38-1.66,0.56-2.49C11.62,4.7,11.72,4.34,11.76,3.96z"/>
		<path class="st1" d="M3.88,16.53c-0.44,0-0.88,0-1.32,0c-0.4-0.74-0.83-1.47-1.26-2.2c0-0.01-0.01-0.03-0.01-0.04
			c0.11,0,0.22-0.01,0.34-0.01c0.99,0,1.98,0,2.97,0.01c0.19,0,0.38-0.02,0.57,0.02c0,0-0.01,0.01-0.01,0.01
			c-0.32,0.55-0.65,1.1-0.97,1.65C4.08,16.15,3.94,16.32,3.88,16.53z"/>
		<path class="st2" d="M18.86,16.53c-0.41,0-0.82,0-1.23,0c-0.39-0.73-0.8-1.44-1.23-2.14c-0.01-0.03-0.03-0.07-0.04-0.1
			c0.06-0.01,0.12-0.02,0.17-0.02c0.09,0.01,0.19,0.02,0.28,0.02c1.08,0,2.17,0.01,3.25,0.01c0.01,0.04,0.03,0.08,0.04,0.12
			c-0.03,0.03-0.07,0.05-0.09,0.09C19.63,15.18,19.25,15.86,18.86,16.53z"/>
		<path class="st3" d="M16.36,14.29c0.01,0.03,0.03,0.07,0.04,0.1c-0.41,0.71-0.82,1.43-1.23,2.14c-0.34,0-0.68,0-1.01,0
			c-0.07-0.09-0.19-0.03-0.26-0.09c-0.39-0.69-0.77-1.38-1.19-2.05c-0.01-0.05-0.03-0.11,0.05-0.12c0.09,0,0.19,0.01,0.28,0.01
			C14.14,14.29,15.25,14.29,16.36,14.29z"/>
		<path class="st4" d="M5.16,14.31C5.16,14.31,5.16,14.3,5.16,14.31c0.06-0.02,0.12-0.02,0.18-0.03c0.64,0,1.28,0,1.92,0.01
			c0.57,0,1.13,0.01,1.7,0.01c0,0,0,0.02,0,0.02c-0.39,0.64-0.76,1.29-1.11,1.95c-0.08,0.06-0.18,0.07-0.27,0.09
			c-0.27,0.06-0.55,0.12-0.82,0.18c-0.1,0-0.21,0-0.31,0C6.03,15.78,5.6,15.04,5.16,14.31z"/>
		<path class="st5" d="M5.16,14.31c0.44,0.73,0.88,1.47,1.28,2.22c-0.85,0-1.7,0-2.56,0c0.06-0.22,0.2-0.39,0.31-0.58
			C4.51,15.41,4.83,14.86,5.16,14.31z"/>
		<path class="st6" d="M1.3,14.34c0.43,0.73,0.86,1.45,1.26,2.2c-0.82,0-1.65,0-2.47,0c0-0.04,0-0.09,0.01-0.13
			C0.52,15.73,0.9,15.03,1.3,14.34z"/>
		<path class="st7" d="M15.16,16.53c0.41-0.71,0.82-1.43,1.23-2.14c0.43,0.7,0.85,1.41,1.23,2.14
			C16.81,16.53,15.99,16.53,15.16,16.53z"/>
		<path class="st3" d="M18.86,16.53c0.38-0.68,0.77-1.35,1.15-2.03c0.02-0.04,0.06-0.06,0.09-0.09c0.07,0.04,0.09,0.11,0.12,0.18
			c0.22,0.37,0.44,0.74,0.66,1.11c0,0.28,0,0.56,0.01,0.83C20.22,16.53,19.54,16.53,18.86,16.53z"/>
		<path class="st8" d="M8.12,8.47C8.05,8.16,7.98,7.85,7.87,7.56c-0.38-1-1.36-1.69-2.42-1.69c-1.17,0-2.35,0-3.52-0.01
			c0.26-0.48,0.53-0.95,0.8-1.44c-0.7,0-1.37,0-2.03,0C0.46,3.93,0.23,3.44,0,2.92c1.31,0,2.59,0,3.88,0C3.88,3.01,3.95,3.05,4,3.1
			c0.18,0.19,0.37,0.37,0.55,0.56C5,4.12,5.44,4.58,5.89,5.04C6.37,5.52,6.86,6,7.34,6.49c0.2,0.2,0.38,0.42,0.58,0.62
			c0.21,0.2,0.41,0.42,0.6,0.63C8.41,8,8.28,8.24,8.12,8.47z"/>
		<path class="st4" d="M10.98,7.67c0.54,0,1.07,0,1.61,0.01c-0.27,0.55-0.61,1.07-0.91,1.61c-0.32,0.56-0.64,1.12-0.97,1.69
			c0.08,0.01,0.13,0.01,0.18,0.02c0,0.01,0,0.03,0,0.04c-0.18,0.02-0.19,0.2-0.26,0.32c-0.55,0.94-1.09,1.89-1.63,2.84
			c-0.42-0.66-0.79-1.34-1.17-2.01c0.16-0.38,0.24-0.79,0.33-1.19c0.77,0,1.54,0,2.34,0c-0.23-0.4-0.45-0.77-0.66-1.15
			C9.42,9.13,9,8.42,8.59,7.71c0.28-0.09,0.57,0,0.85-0.04C9.95,7.67,10.46,7.67,10.98,7.67z"/>
		<path class="st9" d="M9.43,7.67C9.15,7.71,8.87,7.62,8.59,7.71C8.56,7.72,8.54,7.73,8.51,7.74C8.32,7.52,8.13,7.3,7.92,7.1
			C7.71,6.91,7.54,6.69,7.34,6.49C6.86,6,6.37,5.52,5.89,5.04C5.44,4.58,5,4.12,4.55,3.66C4.37,3.47,4.18,3.29,4,3.1
			C3.95,3.05,3.88,3.01,3.88,2.92c0.73,0,1.46-0.03,2.19,0.01C6.49,2.95,6.91,3,7.32,3.14C7.31,3.25,7.34,3.35,7.39,3.46
			c0.33,0.65,0.65,1.3,0.98,1.96c0.23,0.45,0.47,0.89,0.67,1.36C9.17,7.07,9.36,7.34,9.43,7.67z"/>
		<path class="st10" d="M9.43,7.67c-0.07-0.33-0.27-0.6-0.4-0.9c-0.2-0.46-0.44-0.91-0.67-1.36C8.04,4.76,7.72,4.11,7.39,3.46
			c-0.05-0.1-0.08-0.2-0.07-0.32c0.38,0.1,0.75,0.21,1.11,0.37c0.77,0.35,1.45,0.83,1.96,1.52c0.1,0.13,0.13,0.1,0.22-0.01
			c0.32-0.42,0.7-0.79,1.16-1.06c-0.04,0.38-0.14,0.74-0.22,1.11c-0.18,0.83-0.37,1.66-0.56,2.49c-0.01,0.04,0,0.07,0,0.11
			C10.46,7.67,9.95,7.67,9.43,7.67z"/>
		<path class="st2" d="M3.21,10.62c0,0.12,0,0.24,0,0.35c-1.04,0-2.08,0-3.12,0c0-0.66,0-1.32,0-1.97c0.17-0.23,0.3-0.49,0.44-0.75
			c0.43,0,0.87,0,1.3,0C2.28,9.05,2.73,9.85,3.21,10.62z"/>
		<path class="st3" d="M0.1,10.98c1.04,0,2.08,0,3.12,0c0,0.13,0,0.27,0,0.4c-0.38,0.66-0.75,1.32-1.14,1.98
			c-0.16,0.27-0.27,0.57-0.49,0.8c-0.07-0.04-0.09-0.12-0.12-0.18C1,13.2,0.55,12.42,0.1,11.65C0.1,11.42,0.1,11.2,0.1,10.98z"/>
		<path class="st11" d="M8.51,7.74c0.02-0.01,0.05-0.02,0.07-0.02C9,8.42,9.42,9.13,9.83,9.83c0.22,0.37,0.43,0.74,0.66,1.15
			c-0.8,0-1.57,0-2.34,0c0.04-0.55,0.1-1.11,0.05-1.66C8.18,9.03,8.15,8.75,8.12,8.47C8.28,8.24,8.41,8,8.51,7.74z"/>
		<path class="st2" d="M1.58,14.16c0.22-0.23,0.33-0.53,0.49-0.8c0.39-0.66,0.76-1.32,1.14-1.98c0,0.66,0.01,1.32,0,1.98
			c0,0.15,0.04,0.18,0.18,0.18c0.51-0.01,1.01,0,1.52,0c0.13,0.22,0.22,0.46,0.4,0.64c0.01,0.03,0.01,0.06,0.02,0.1
			c-0.06,0.01-0.11,0.02-0.17,0.02c-0.19-0.04-0.38-0.02-0.57-0.02c-0.99,0-1.98-0.01-2.97-0.01C1.61,14.24,1.6,14.2,1.58,14.16z"/>
		<path class="st3" d="M5.33,14.28c-0.01-0.03-0.01-0.06-0.02-0.1c0.11-0.21,0.23-0.43,0.34-0.64c0.08,0,0.16-0.01,0.24-0.01
			c0.8,0.07,1.33-0.34,1.72-0.98c0.08-0.12,0.14-0.26,0.2-0.39c0.39,0.67,0.76,1.36,1.17,2.01c0.01,0.05,0.03,0.11-0.05,0.12
			c-0.57,0-1.13-0.01-1.7-0.01C6.61,14.28,5.97,14.28,5.33,14.28z"/>
		<path class="st11" d="M1.58,14.16c0.01,0.04,0.03,0.08,0.04,0.12c-0.11,0-0.22,0.01-0.34,0.01c-0.4,0-0.8,0-1.19,0
			c0-0.88,0-1.76,0-2.64C0.55,12.42,1,13.2,1.46,13.98C1.49,14.04,1.51,14.12,1.58,14.16z"/>
		<path class="st7" d="M0.68,4.42c0.67,0,1.34,0,2.03,0c-0.27,0.49-0.53,0.97-0.8,1.44C1.34,5.89,1.34,5.89,1.1,5.36
			C0.96,5.05,0.82,4.73,0.68,4.42z"/>
		<path class="st1" d="M3.21,10.62C2.73,9.85,2.28,9.05,1.83,8.26c0.42,0,0.83,0,1.25-0.01c0.11,0,0.14,0.03,0.13,0.14
			C3.21,9.13,3.21,9.88,3.21,10.62z"/>
		<path class="st5" d="M0.1,14.29c0.4,0,0.8,0,1.19,0c0,0.01,0.01,0.03,0.01,0.04c-0.39,0.69-0.78,1.39-1.2,2.07
			C0.1,15.7,0.1,14.99,0.1,14.29z"/>
		<path class="st1" d="M5.66,13.54c-0.11,0.21-0.23,0.43-0.34,0.64c-0.19-0.18-0.28-0.42-0.4-0.64C5.16,13.54,5.41,13.54,5.66,13.54
			z"/>
		<path class="st12" d="M0.53,8.26C0.4,8.51,0.27,8.77,0.1,9.01c0-0.19,0-0.38-0.01-0.57C0.07,8.29,0.11,8.22,0.27,8.25
			C0.36,8.26,0.45,8.25,0.53,8.26z"/>
		<path class="st7" d="M12.96,8.12c0.01,0,0.02,0,0.03,0.01c0.03,0.05,0.05,0.1,0.08,0.15c0.51,0.9,1.03,1.8,1.54,2.7
			c-0.25,0-0.49,0-0.74,0c-0.35-0.68-0.7-1.36-1.05-2.05c-0.04,0.08-0.04,0.14-0.05,0.2c-0.06,0.61-0.01,1.23,0.04,1.84
			c-0.65,0-1.29,0.01-1.94,0.01c-0.05-0.01-0.1-0.01-0.18-0.02c0.33-0.57,0.66-1.13,0.97-1.69c0.3-0.54,0.64-1.05,0.91-1.61
			c0.04-0.12,0.08-0.09,0.14-0.01c0.07,0.13,0.15,0.25,0.23,0.37C12.96,8.07,12.96,8.1,12.96,8.12"/>
		<path class="st7" d="M19.53,5.86c-0.55,0-1.09,0-1.64,0c0.26-0.46,0.52-0.93,0.78-1.39c0.01-0.02,0.03-0.05,0.06-0.05
			c0.09,0.16,0.19,0.31,0.27,0.47C19.17,5.22,19.4,5.51,19.53,5.86z"/>
		<path class="st13" d="M19.53,5.86c-0.13-0.35-0.36-0.64-0.53-0.97c-0.08-0.16-0.18-0.32-0.27-0.47c0.52,0,1.04,0,1.56,0
			c-0.2,0.45-0.4,0.91-0.6,1.36C19.67,5.86,19.62,5.88,19.53,5.86z"/>
		<path class="st5" d="M14.62,10.98c-0.51-0.9-1.03-1.8-1.54-2.7c-0.03-0.05-0.06-0.1-0.08-0.15c1.29,0.03,2.59,0.01,3.88,0.07
			c0.09,0.16,0.18,0.32,0.27,0.48c0.44,0.77,0.87,1.53,1.31,2.3c-0.23,0.38-0.46,0.77-0.69,1.15c0-0.29-0.02-0.57,0-0.86
			c0.01-0.19-0.03-0.25-0.24-0.25C16.56,11.03,15.59,10.99,14.62,10.98C14.62,10.97,14.63,10.99,14.62,10.98z"/>
		<path class="st4" d="M20.02,8.25c0.24,0,0.48,0,0.72,0c0.11,0,0.15,0.03,0.15,0.15c-0.01,0.86-0.01,1.73-0.01,2.59
			c-0.72,0-1.44,0-2.15,0c-0.08,0-0.16,0.02-0.24-0.03c0.03-0.06,0.06-0.12,0.09-0.17C19.06,9.94,19.54,9.09,20.02,8.25z"/>
		<path class="st6" d="M18.5,10.95c0.07,0.05,0.16,0.03,0.24,0.03c0.72,0,1.44,0,2.15,0c0,0.8,0,1.6,0,2.41
			c-0.16,0.27-0.33,0.54-0.49,0.81c-0.22-0.23-0.33-0.53-0.49-0.8c-0.48-0.8-0.94-1.62-1.41-2.43
			C18.49,10.97,18.49,10.96,18.5,10.95z"/>
		<path class="st11" d="M20.02,8.25c-0.48,0.84-0.96,1.69-1.43,2.53c-0.03,0.06-0.06,0.12-0.09,0.17c0,0.01-0.01,0.01,0,0.02
			c-0.01,0-0.02,0-0.03,0c-0.44-0.77-0.87-1.53-1.31-2.3c-0.09-0.16-0.18-0.32-0.27-0.48C17.93,8.2,18.97,8.2,20.02,8.25z"/>
		<path class="st11" d="M20.88,15.7c-0.22-0.37-0.44-0.74-0.66-1.11c-0.04-0.06-0.06-0.14-0.12-0.18c-0.01-0.04-0.03-0.08-0.04-0.12
			c0.11,0,0.22-0.01,0.34-0.01c0.16,0,0.32,0,0.49,0C20.89,14.76,20.89,15.23,20.88,15.7z"/>
		<path class="st5" d="M20.89,14.29c-0.16,0-0.32,0-0.49,0c0-0.03,0-0.05-0.01-0.08c0.16-0.27,0.33-0.54,0.49-0.81
			C20.88,13.69,20.89,13.99,20.89,14.29z"/>
		<path class="st14" d="M20.39,14.2c0,0.03,0,0.05,0.01,0.08c-0.11,0-0.22,0.01-0.34,0.01c-1.08,0-2.17,0-3.25-0.01
			c-0.09,0-0.19-0.01-0.28-0.02c0,0,0,0,0,0c0.16-0.23,0.3-0.47,0.42-0.72c0.22,0,0.44-0.01,0.66,0c0.13,0.01,0.16-0.04,0.16-0.16
			c0-0.42,0-0.83,0-1.25c0.23-0.38,0.46-0.77,0.69-1.15c0.01,0,0.02,0,0.03,0c0.47,0.81,0.93,1.62,1.41,2.43
			C20.06,13.67,20.18,13.97,20.39,14.2z"/>
		<path class="st13" d="M16.53,14.26C16.53,14.26,16.53,14.27,16.53,14.26c-0.06,0.01-0.11,0.02-0.17,0.03c-1.11,0-2.22,0-3.33-0.01
			c-0.09,0-0.19-0.01-0.28-0.01c0,0,0-0.02,0-0.02c0.04-0.06,0.09-0.11,0.12-0.18c0.23-0.4,0.47-0.81,0.7-1.21
			c0.4,0.46,0.88,0.72,1.51,0.68c0.34-0.03,0.69,0,1.03,0C16.24,13.79,16.37,14.04,16.53,14.26z"/>
		<path class="st11" d="M12.74,14.25c0,0,0,0.02,0,0.02c-0.08,0.01-0.06,0.07-0.05,0.12c-0.26,0.45-0.52,0.89-0.78,1.34
			c-0.52-0.3-0.96-0.7-1.31-1.19c-0.11-0.15-0.14-0.12-0.23,0.01c-0.22,0.32-0.49,0.61-0.8,0.84c-0.21-0.35-0.42-0.71-0.63-1.06
			c0,0,0-0.02,0-0.02c0.08-0.01,0.06-0.07,0.05-0.12c0.54-0.95,1.08-1.9,1.63-2.84c0.07-0.11,0.07-0.29,0.26-0.32
			c0.05,0.09,0.09,0.18,0.14,0.27c0.37,0.64,0.73,1.28,1.1,1.91C12.33,13.56,12.54,13.91,12.74,14.25z"/>
		<path class="st4" d="M11.91,15.73c0.26-0.45,0.52-0.89,0.78-1.34c0.42,0.67,0.8,1.36,1.19,2.05
			C13.17,16.35,12.52,16.12,11.91,15.73z"/>
		<path class="st2" d="M8.94,14.32c0.21,0.35,0.42,0.71,0.63,1.06c-0.51,0.42-1.09,0.72-1.74,0.89C8.18,15.61,8.55,14.96,8.94,14.32
			z"/>
		<path class="st2" d="M12.74,14.25c-0.21-0.35-0.42-0.69-0.62-1.04c-0.37-0.64-0.74-1.27-1.1-1.91c-0.05-0.09-0.09-0.18-0.14-0.27
			c0-0.01,0-0.03,0-0.04c0.65,0,1.29-0.01,1.94-0.01c0.01,0.04,0.03,0.08,0.04,0.12c0.11,0.64,0.32,1.24,0.7,1.76
			c-0.23,0.4-0.47,0.81-0.7,1.21C12.83,14.14,12.78,14.19,12.74,14.25z"/>
		<path class="st5" d="M16.11,13.54c0.28,0,0.56,0,0.84,0c-0.12,0.25-0.26,0.49-0.42,0.72C16.37,14.04,16.24,13.79,16.11,13.54z"/>
	</g>
	<rect x="5.7" y="2.37" class="st9" width="0.61" height="0.61"/>
	<rect x="6.93" y="2.22" class="st9" width="0.5" height="0.5"/>
	<rect x="7.32" y="1.61" class="st9" width="0.37" height="0.37"/>
	<rect x="6.19" y="1.24" class="st9" width="0.37" height="0.37"/>
	<rect x="7.35" y="2.72" class="st10" width="0.61" height="0.61"/>
	<rect x="7.75" y="2.26" class="st8" width="0.47" height="0.47"/>
	<rect x="8.51" y="2.63" class="st10" width="0.21" height="0.21"/>
	<rect x="6.77" y="0.66" class="st10" width="0.21" height="0.21"/>
	<rect x="6.01" y="0.32" class="st10" width="0.21" height="0.21"/>
	<rect x="8.24" y="0.11" class="st10" width="0.21" height="0.21"/>
</g>
<g>
	<path d="M21.17,8.22h0.88c0.24,0,0.45,0.02,0.61,0.07c0.17,0.05,0.31,0.13,0.44,0.23c0.18,0.15,0.32,0.33,0.41,0.55
		s0.15,0.45,0.15,0.69c0,0.27-0.05,0.52-0.16,0.75c-0.11,0.23-0.26,0.41-0.46,0.55c-0.13,0.09-0.27,0.16-0.42,0.2
		c-0.15,0.04-0.39,0.06-0.7,0.06h-0.75V8.22z M21.47,8.52v2.52h0.63c0.4,0,0.7-0.11,0.91-0.33c0.21-0.22,0.32-0.54,0.32-0.94
		c0-0.2-0.04-0.39-0.11-0.56c-0.07-0.17-0.18-0.32-0.31-0.43c-0.1-0.09-0.21-0.15-0.34-0.19c-0.12-0.04-0.31-0.06-0.55-0.06H21.47z"
		/>
	<path d="M26.34,10.25h-2.12c0.02,0.26,0.11,0.46,0.28,0.62c0.17,0.16,0.37,0.24,0.62,0.24c0.18,0,0.33-0.05,0.48-0.14
		c0.14-0.09,0.25-0.22,0.33-0.38h0.34c-0.11,0.26-0.26,0.46-0.46,0.6c-0.2,0.14-0.42,0.21-0.68,0.21c-0.34,0-0.63-0.12-0.87-0.37
		c-0.24-0.24-0.35-0.54-0.35-0.88c0-0.36,0.12-0.65,0.35-0.89s0.53-0.35,0.89-0.35c0.35,0,0.64,0.12,0.86,0.36
		c0.22,0.24,0.33,0.56,0.33,0.95V10.25z M26.01,9.99c-0.06-0.26-0.16-0.46-0.31-0.59c-0.15-0.13-0.35-0.2-0.6-0.2
		c-0.23,0-0.42,0.07-0.58,0.21c-0.16,0.14-0.25,0.33-0.29,0.57H26.01z"/>
	<path d="M28.53,9.35c0.1-0.13,0.21-0.24,0.36-0.31c0.14-0.07,0.3-0.11,0.47-0.11c0.32,0,0.55,0.1,0.7,0.29s0.22,0.5,0.22,0.92v1.18
		h-0.29v-1.25c0-0.31-0.05-0.53-0.15-0.66c-0.1-0.13-0.27-0.2-0.5-0.2c-0.13,0-0.25,0.03-0.35,0.08s-0.18,0.13-0.24,0.24
		c-0.04,0.06-0.06,0.14-0.08,0.22s-0.02,0.22-0.02,0.43v1.14h-0.28v-1.31c0-0.27-0.06-0.47-0.16-0.6s-0.28-0.19-0.5-0.19
		c-0.14,0-0.26,0.03-0.36,0.08c-0.1,0.05-0.18,0.13-0.24,0.24c-0.04,0.06-0.06,0.14-0.08,0.22c-0.02,0.08-0.02,0.22-0.02,0.43v1.14
		h-0.3V8.99h0.3v0.27c0.09-0.1,0.2-0.18,0.32-0.23s0.26-0.08,0.41-0.08c0.18,0,0.34,0.04,0.49,0.11
		C28.35,9.12,28.46,9.23,28.53,9.35z"/>
	<path d="M30.63,10.16c0-0.34,0.12-0.64,0.35-0.88c0.24-0.24,0.52-0.37,0.84-0.37c0.34,0,0.63,0.12,0.87,0.36
		c0.24,0.24,0.36,0.53,0.36,0.86c0,0.35-0.12,0.65-0.35,0.9c-0.24,0.25-0.52,0.37-0.85,0.37c-0.34,0-0.63-0.12-0.86-0.36
		C30.75,10.79,30.63,10.5,30.63,10.16z M30.95,10.16c0,0.27,0.09,0.5,0.26,0.68c0.17,0.18,0.39,0.27,0.64,0.27
		c0.25,0,0.46-0.09,0.63-0.27c0.17-0.18,0.26-0.41,0.26-0.68c0-0.28-0.09-0.51-0.26-0.68c-0.17-0.18-0.39-0.27-0.66-0.27
		c-0.24,0-0.44,0.09-0.62,0.28C31.03,9.66,30.95,9.89,30.95,10.16z"/>
	<path d="M22.26,15.09h1.93c-0.03,0.45-0.19,0.82-0.49,1.12s-0.67,0.44-1.11,0.44c-0.45,0-0.82-0.16-1.13-0.47
		c-0.3-0.31-0.45-0.7-0.45-1.17c0-0.22,0.04-0.42,0.12-0.62c0.08-0.2,0.2-0.37,0.36-0.53c0.15-0.15,0.32-0.27,0.51-0.34
		c0.19-0.07,0.39-0.11,0.62-0.11c0.3,0,0.57,0.07,0.81,0.22c0.24,0.15,0.43,0.35,0.58,0.62h-0.38c-0.15-0.19-0.3-0.32-0.47-0.41
		c-0.17-0.09-0.35-0.13-0.56-0.13c-0.36,0-0.66,0.13-0.91,0.38c-0.25,0.26-0.37,0.56-0.37,0.92c0,0.38,0.12,0.7,0.37,0.95
		s0.55,0.38,0.91,0.38c0.28,0,0.54-0.09,0.77-0.27s0.37-0.42,0.44-0.71h-1.57V15.09z"/>
	<path d="M24.87,16.58h-0.31v-2.35h0.28v0.27c0.07-0.1,0.15-0.18,0.24-0.23s0.19-0.07,0.31-0.08l0,0.33
		c-0.19,0.02-0.32,0.07-0.41,0.17c-0.08,0.1-0.12,0.25-0.12,0.47V16.58z"/>
	<path d="M27.64,16.21c-0.09,0.14-0.22,0.24-0.38,0.32c-0.16,0.08-0.33,0.12-0.52,0.12c-0.34,0-0.63-0.12-0.86-0.35
		c-0.23-0.24-0.34-0.53-0.34-0.87c0-0.35,0.12-0.65,0.35-0.88c0.23-0.24,0.53-0.35,0.88-0.35c0.18,0,0.35,0.04,0.5,0.11
		c0.15,0.07,0.28,0.18,0.38,0.32v-0.38h0.29v2.35h-0.29V16.21z M27.64,15.39c0-0.25-0.09-0.47-0.27-0.65
		c-0.18-0.19-0.38-0.28-0.61-0.28c-0.25,0-0.47,0.09-0.64,0.28c-0.18,0.19-0.27,0.42-0.27,0.69c0,0.26,0.09,0.48,0.26,0.66
		c0.18,0.18,0.39,0.27,0.64,0.27c0.24,0,0.45-0.09,0.62-0.28C27.55,15.89,27.64,15.66,27.64,15.39z"/>
	<path d="M28.4,13.5h0.3v0.38c0.08-0.13,0.21-0.24,0.37-0.32c0.16-0.08,0.33-0.12,0.51-0.12c0.35,0,0.65,0.12,0.88,0.35
		c0.23,0.24,0.35,0.53,0.35,0.88c0,0.34-0.12,0.63-0.34,0.87s-0.52,0.35-0.86,0.35c-0.19,0-0.36-0.04-0.52-0.11
		c-0.15-0.07-0.28-0.18-0.38-0.32v0.16v0.35v0.62h-0.3V13.5z M28.7,14.66c0,0.27,0.09,0.5,0.26,0.69s0.38,0.28,0.62,0.28
		c0.25,0,0.46-0.09,0.63-0.27c0.18-0.18,0.26-0.4,0.26-0.66c0-0.27-0.09-0.5-0.27-0.69c-0.18-0.19-0.39-0.28-0.64-0.28
		c-0.23,0-0.44,0.09-0.61,0.28S28.7,14.41,28.7,14.66z"/>
	<path d="M31.16,13.47h0.3v1.04c0.09-0.11,0.19-0.19,0.31-0.24c0.12-0.05,0.26-0.08,0.41-0.08c0.33,0,0.57,0.09,0.72,0.28
		c0.15,0.19,0.23,0.49,0.23,0.92v1.19h-0.3v-1.2c0-0.34-0.05-0.58-0.15-0.71c-0.1-0.13-0.27-0.2-0.51-0.2
		c-0.14,0-0.26,0.03-0.36,0.08c-0.1,0.05-0.18,0.13-0.24,0.24c-0.04,0.06-0.06,0.14-0.08,0.22c-0.01,0.08-0.02,0.22-0.02,0.43v1.14
		h-0.3V13.47z"/>
	<path d="M33.91,13.96h-0.3v-0.48h0.3V13.96z M33.61,16.58v-2.35h0.3v2.35H33.61z"/>
	<path d="M36.28,14.95c-0.09-0.17-0.21-0.3-0.34-0.38c-0.13-0.08-0.29-0.12-0.47-0.12c-0.24,0-0.45,0.09-0.62,0.28
		s-0.25,0.41-0.25,0.68c0,0.27,0.08,0.5,0.25,0.68c0.17,0.18,0.38,0.27,0.63,0.27c0.18,0,0.34-0.04,0.48-0.13
		c0.14-0.09,0.25-0.22,0.32-0.38h0.33c-0.09,0.25-0.23,0.45-0.43,0.59c-0.2,0.14-0.42,0.21-0.69,0.21c-0.34,0-0.63-0.12-0.86-0.36
		s-0.35-0.53-0.35-0.87c0-0.35,0.12-0.64,0.35-0.88c0.24-0.24,0.53-0.36,0.87-0.36c0.25,0,0.48,0.07,0.67,0.21
		c0.19,0.14,0.34,0.33,0.44,0.58H36.28z"/>
	<path d="M36.9,15.84h0.31v0.01c0,0.15,0.04,0.27,0.13,0.36c0.08,0.1,0.19,0.14,0.31,0.14c0.12,0,0.22-0.04,0.29-0.11
		c0.08-0.07,0.12-0.17,0.12-0.28c0-0.11-0.03-0.2-0.09-0.27c-0.06-0.07-0.17-0.13-0.34-0.19c-0.26-0.09-0.43-0.19-0.51-0.28
		c-0.08-0.1-0.12-0.23-0.12-0.39c0-0.18,0.07-0.34,0.2-0.47c0.13-0.13,0.29-0.19,0.48-0.19c0.2,0,0.36,0.06,0.48,0.17
		s0.18,0.27,0.19,0.48h-0.32c-0.01-0.11-0.04-0.2-0.11-0.26c-0.06-0.06-0.15-0.09-0.26-0.09c-0.1,0-0.18,0.03-0.25,0.1
		c-0.07,0.07-0.1,0.15-0.1,0.25c0,0.07,0.01,0.13,0.04,0.18c0.03,0.05,0.07,0.09,0.13,0.13c0.06,0.04,0.14,0.07,0.25,0.1
		c0.11,0.03,0.18,0.06,0.22,0.07c0.15,0.06,0.25,0.15,0.32,0.25c0.07,0.1,0.1,0.24,0.1,0.4c0,0.2-0.07,0.37-0.21,0.5
		s-0.32,0.2-0.54,0.2c-0.22,0-0.4-0.07-0.53-0.22S36.9,16.08,36.9,15.84z"/>
</g>
</svg>
